<?xml version="1.0" standalone="no"?>
<!DOCTYPE svg PUBLIC "-//W3C//DTD SVG 1.1//EN" "http://www.w3.org/Graphics/SVG/1.1/DTD/svg11.dtd" >
<svg xmlns="http://www.w3.org/2000/svg">
<metadata>
This is a custom SVG webfont generated by Font Squirrel.
Copyright   : c Copyright 19951997 International Typeface Corporation  All rights reserved
</metadata>
<defs>
<font id="webfontK88Jio3X" horiz-adv-x="1024" >
<font-face units-per-em="2048" ascent="1638" descent="-410" />
<missing-glyph horiz-adv-x="614" />
<glyph unicode=" "  horiz-adv-x="614" />
<glyph unicode="&#x09;" horiz-adv-x="614" />
<glyph unicode="&#xa0;" horiz-adv-x="614" />
<glyph unicode="!" horiz-adv-x="731" d="M197 0v223h317v-223h-317zM453 391h-197l-57 979v113h311v-113z" />
<glyph unicode="&#x22;" horiz-adv-x="614" d="M524 881h-139v555h139v-555zM229 881h-139v555h139v-555z" />
<glyph unicode="#" horiz-adv-x="1560" d="M641 1028l-39 -235h305l39 235h-305zM1149 1028l-37 -235h215v-191h-248l-59 -364h-205l62 364h-306l-61 -364h-205l60 364h-211v191h245l37 235h-215v191h248l43 264h205l-41 -264h303l43 264h205l-43 -264h213v-191h-248z" />
<glyph unicode="$" horiz-adv-x="1943" d="M1059 193q221 14 331.5 79.5t110.5 171.5q0 209 -442 222v-473zM813 1282q-199 -8 -298 -57t-99 -135q0 -164 397 -183v375zM1059 891q360 -18 534 -121.5t174 -308.5q0 -217 -178 -341t-530 -143v-112h-246v117q-229 18 -403 77.5t-304 163.5l134 178q260 -166 573 -200 v477q-332 10 -493.5 100t-161.5 279q0 193 165.5 307.5t489.5 134.5v84h246v-88q203 -29 356.5 -79t263.5 -132l-149 -164q-217 115 -471 152v-381z" />
<glyph unicode="%" horiz-adv-x="2342" d="M764 1110q0 86 -56.5 142.5t-138.5 56.5q-84 0 -140 -56.5t-56 -142.5q0 -84 56 -141.5t140 -57.5q82 0 138.5 56.5t56.5 142.5zM1968 375q0 86 -55 142t-137 56q-86 0 -142.5 -56t-56.5 -142q0 -84 57.5 -141.5t141.5 -57.5q82 0 137 56.5t55 142.5zM983 1110 q0 -80 -31.5 -152.5t-91.5 -132.5q-121 -117 -291 -116q-84 0 -158.5 29.5t-131.5 84.5q-123 119 -123 287t123 287q121 117 290 116q170 0 291 -116q123 -123 123 -287zM649 -20h-280l1327 1503h278zM2187 375q0 -168 -123 -287q-121 -117 -288 -117q-170 0 -291 117 q-125 119 -125 287q0 80 31.5 153.5t93.5 133.5q121 117 291 116q168 0 288 -116q59 -59 91 -133t32 -154z" />
<glyph unicode="&#x26;" horiz-adv-x="1929" d="M1092 289q-190 172 -353 387q-408 -63 -407 -266q0 -98 98 -161t277 -63q170 1 385 103zM842 909q285 35 284 234q0 66 -48 111.5t-122 45.5q-86 0 -138 -52t-52 -138q0 -84 76 -201zM1804 -6q-287 14 -538 147q-123 -84 -270.5 -126t-313.5 -42q-135 0 -245.5 35 t-189.5 94.5t-121 141.5t-42 174q0 324 516 446q-76 121 -76 246t80 227q63 82 157.5 127t203.5 45q90 0 163.5 -27.5t127 -76.5t82 -117.5t28.5 -150.5q0 -141 -97.5 -246t-287.5 -160q135 -172 297 -309q66 53 118 140t95 212h252q-82 -268 -287 -479q166 -74 348 -74 v-227z" />
<glyph unicode="'" horiz-adv-x="317" d="M229 881h-139v555h139v-555z" />
<glyph unicode="(" horiz-adv-x="884" d="M764 -289q-156 16 -258.5 81t-179.5 188q-82 131 -130.5 307t-48.5 377q0 199 47.5 376t131.5 312q78 127 180 191.5t258 80.5v-115h-4q-76 0 -143.5 -57t-117.5 -165.5t-79 -265.5t-29 -357q0 -201 27.5 -356.5t77 -263t118 -163t148.5 -55.5h2v-115z" />
<glyph unicode=")" horiz-adv-x="892" d="M119 1624q156 -16 257 -81.5t179 -190.5q84 -135 132 -313.5t48 -374.5q0 -199 -48 -376t-130 -311q-78 -123 -180.5 -186t-257.5 -80v115h2q80 0 147.5 55.5t117.5 163t78 263t28 356.5q0 199 -29 356.5t-79 266t-117.5 165.5t-143.5 57h-4v115z" />
<glyph unicode="*" horiz-adv-x="1179" d="M705 995l225 -274l-166 -119l-184 311l-183 -311l-166 119l226 274l-348 68l63 194l326 -124l-39 350h243l-38 -350l325 124l64 -194z" />
<glyph unicode="+" horiz-adv-x="800" d="M301 0v1012l-201 -84v215q113 39 203 117h244v-1260h-246z" />
<glyph unicode="," horiz-adv-x="727" d="M522 -57q0 -223 -256 -224h-47v121q154 2 154 86v74h-168v223h317v-280z" />
<glyph unicode="-" horiz-adv-x="1087" d="M123 543v223h842v-223h-842z" />
<glyph unicode="." horiz-adv-x="727" d="M205 0v223h317v-223h-317z" />
<glyph unicode="/" horiz-adv-x="1110" d="M221 -20h-280l950 1503h278z" />
<glyph unicode="0" horiz-adv-x="1908" d="M1485 741q0 119 -39 217.5t-109.5 170t-168 111.5t-214.5 40t-214 -40t-167.5 -111.5t-109.5 -170t-39 -217.5q0 -117 39 -216t109.5 -170.5t168 -111.5t213.5 -40q117 0 214.5 40t168 111.5t109.5 170.5t39 216zM1733 741q0 -154 -58.5 -292t-173.5 -248 q-111 -109 -249 -165t-298 -56q-156 0 -296 56t-250 165q-115 111 -173.5 249t-58.5 291q0 154 59.5 291t174.5 248q111 106 250 162.5t294 56.5q160 0 298.5 -55t248.5 -164q115 -111 173.5 -248t58.5 -291z" />
<glyph unicode="1" horiz-adv-x="784" d="M295 0v1237l-238 -102v213q135 43 240 135h244v-1483h-246z" />
<glyph unicode="2" horiz-adv-x="1716" d="M63 0q12 281 163 460t454 275q145 45 268 75t211 77q53 31 80 68.5t27 91.5q0 104 -103.5 168.5t-296.5 64.5q-164 0 -304 -50t-275 -157l-156 164q174 135 354.5 199.5t384.5 64.5q147 0 269.5 -35.5t209.5 -98t135 -150t48 -187.5q0 -156 -96.5 -252t-294.5 -151 q-109 -31 -216.5 -54.5t-211.5 -58.5q-133 -47 -220 -113.5t-139 -177.5h1215v-223h-1506z" />
<glyph unicode="3" horiz-adv-x="1763" d="M1278 780q147 -49 224 -144t77 -220q0 -205 -200.5 -322t-583.5 -117q-244 0 -427.5 69t-336.5 233l164 163q139 -127 290.5 -184t335.5 -57q248 0 373 65.5t125 182.5q0 115 -145.5 168t-444.5 53h-57q-29 0 -60 -2v200h226q205 0 309 57.5t104 161.5q0 193 -403 193 q-158 0 -296 -40t-271 -126l-142 152q172 119 344 177t363 58q317 0 488 -109.5t171 -293.5q0 -104 -57 -185.5t-170 -132.5z" />
<glyph unicode="4" horiz-adv-x="1660" d="M1028 1223l-715 -709h715v709zM1274 291v-291h-246v291h-977v223l981 969h242v-969h340v-223h-340z" />
<glyph unicode="5" horiz-adv-x="1810" d="M373 852q254 104 510 104q174 0 312 -35.5t233.5 -99t146.5 -151.5t51 -193q0 -111 -50 -202t-144.5 -157.5t-227.5 -103.5t-299 -37q-528 0 -823 302l192 131q236 -217 627 -217q223 0 348 78.5t125 205.5q0 123 -132 198t-380 75q-279 0 -536 -134l-209 115l231 752 h1168v-223h-1002z" />
<glyph unicode="6" horiz-adv-x="1871" d="M465 451q133 -248 534 -248q104 0 188.5 19.5t143 53t89 79.5t30.5 100q0 57 -32 106t-90 86t-140 57.5t-182 20.5q-162 0 -302.5 -70.5t-238.5 -203.5zM410 676q293 256 604 256q154 0 280.5 -36t218 -98.5t140.5 -149.5t49 -187q0 -111 -46 -200t-135 -152.5 t-219.5 -98.5t-295.5 -35q-203 0 -362 52.5t-267.5 150.5t-165.5 238.5t-57 316.5q0 127 35.5 238.5t105.5 206.5q117 156 295 241.5t397 85.5q201 0 368 -69.5t283 -200.5l-180 -143q-82 92 -201.5 141t-269.5 49q-186 0 -323 -84q-129 -78 -197 -190.5t-68 -239.5 q0 -23 3.5 -45z" />
<glyph unicode="7" horiz-adv-x="1566" d="M551 0h-283l965 1260h-1202v223h1487v-223z" />
<glyph unicode="8" horiz-adv-x="1828" d="M1450 434q0 236 -535 236q-537 0 -536 -236q0 -113 134 -173t402 -60t401.5 60t133.5 173zM1358 1083q0 197 -443 197q-444 0 -444 -197q0 -100 112.5 -157.5t331.5 -57.5t331 57.5t112 157.5zM1341 778q180 -49 272.5 -145t92.5 -219q0 -205 -201.5 -322t-589.5 -117 q-387 0 -589.5 117t-202.5 322q0 123 92 219t272 145q-129 41 -195.5 122t-66.5 185q0 193 176.5 303.5t509.5 110.5q336 0 514.5 -110.5t178.5 -303.5q0 -104 -67 -185t-196 -122z" />
<glyph unicode="9" horiz-adv-x="1822" d="M1315 1040q-150 244 -547 244q-209 0 -324.5 -71.5t-115.5 -184.5q0 -121 113.5 -193.5t318.5 -72.5q174 0 317.5 71.5t237.5 206.5zM1370 811q-109 -125 -269.5 -193.5t-350.5 -68.5q-156 0 -281 32.5t-212 93t-133 144.5t-46 189q0 111 48 201.5t139 155.5t223.5 100.5 t299.5 35.5q195 0 351.5 -55t267.5 -155.5t171 -244t60 -317.5q0 -334 -245 -551q-111 -98 -258.5 -151.5t-317.5 -53.5q-410 0 -665 252l165 160q76 -90 200 -138t284 -48q131 0 248 45q76 29 137 78t105 112.5t67.5 138t23.5 156.5q0 23 -2 42.5t-10 39.5z" />
<glyph unicode=":" horiz-adv-x="727" d="M205 0v223h317v-223h-317zM205 745v224h317v-224h-317z" />
<glyph unicode=";" horiz-adv-x="737" d="M522 -57q0 -223 -256 -224h-47v121q154 2 154 86v74h-168v223h317v-280zM205 745v224h317v-224h-317z" />
<glyph unicode="&#x3c;" horiz-adv-x="1589" d="M117 0q10 170 70.5 293t177.5 209q106 78 213.5 112.5t209.5 63.5l150 43q66 18 110 39.5t67.5 49.5t23.5 67q0 176 -322 176q-137 0 -257 -42t-234 -132l-160 163q309 233 655 234q135 0 242.5 -29.5t182.5 -83t116 -127t41 -159.5q0 -82 -25.5 -140.5t-78 -102.5 t-132.5 -76t-186 -58l-186 -46q-86 -22 -159 -50.5t-129 -70.5t-95 -110h1022v-223h-1317z" />
<glyph unicode="=" horiz-adv-x="1597" d="M1196 666q223 -113 223 -299q0 -182 -174 -283.5t-514 -101.5q-211 0 -374.5 62t-305.5 206l156 153q123 -104 250 -151t278 -47q199 0 309.5 54t110.5 134q0 158 -479 158h-60q-29 0 -61 -2v205q33 -2 63 -2h60q420 0 420 163q0 66 -82 102t-244 36q-129 0 -252 -36 t-229 -108l-150 156q158 106 312.5 158.5t320.5 52.5q279 0 430.5 -96.5t151.5 -255.5q0 -152 -160 -258z" />
<glyph unicode="&#x3e;" horiz-adv-x="1531" d="M903 1010l-584 -549h584v549zM1149 238v-238h-246v238h-848v221l848 801h246v-799h289v-223h-289z" />
<glyph unicode="?" horiz-adv-x="1488" d="M422 0v223h317v-223h-317zM45 1208q141 145 307 215t373 70q160 0 284 -31.5t210 -89t131 -138.5t45 -179q0 -74 -17.5 -130.5t-55.5 -98.5t-97.5 -72.5t-141.5 -53.5l-153 -40q-70 -17 -123 -44q-123 -59 -131 -225h-199q-2 12 -2 25v24q0 156 79 248t249 152 q74 27 134 46t103 41.5t66.5 54.5t23.5 81q0 102 -102 157.5t-303 55.5q-326 0 -510 -201z" />
<glyph unicode="@" horiz-adv-x="1699" d="M963 786q0 68 -20.5 100t-72.5 32q-41 0 -79.5 -28t-69.5 -78t-50.5 -118.5t-19.5 -148.5q0 -115 92 -115q41 0 81 26.5t71 75t49.5 112.5t18.5 142zM825 -39q-154 0 -280.5 49t-220.5 144q-94 92 -144.5 217t-50.5 272q0 80 15.5 155.5t48.5 145.5q43 96 114.5 175 t162.5 135.5t199.5 87t225.5 30.5q201 0 377 -100q141 -82 221 -220.5t80 -299.5q0 -106 -36 -196.5t-98.5 -156t-148.5 -102.5t-186 -37q-158 0 -193 102q-92 -61 -182 -61q-111 0 -177.5 74t-66.5 198q0 111 43 208.5t123 168.5q98 88 230 88q68 0 133 -37l16 29h168 q-78 -250 -113.5 -389t-35.5 -168q0 -92 92 -92q117 0 184.5 95t67.5 269q0 111 -36 200t-100.5 151.5t-156.5 97.5t-205 35q-131 0 -237.5 -41t-183.5 -117t-119 -181.5t-42 -234.5q0 -553 578 -553h12v-141h-78z" />
<glyph unicode="A" horiz-adv-x="1939" d="M971 1272l-379 -717h756zM1640 0l-172 332h-997l-172 -332h-268l784 1483h309l785 -1483h-269z" />
<glyph unicode="B" horiz-adv-x="2164" d="M1432 223q158 0 232.5 47t74.5 154q0 111 -65.5 163t-203.5 52h-976v-416h938zM1450 862q104 0 172 58.5t68 142.5q0 90 -61.5 143.5t-168.5 53.5h-966v-398h956zM1737 764q254 -86 254 -375q0 -193 -140.5 -291t-420.5 -98h-1182v1483h1198q115 0 205 -29t151.5 -82 t94 -128t32.5 -167q0 -104 -46 -180t-146 -133z" />
<glyph unicode="C" horiz-adv-x="2142" d="M1755 1065q-117 125 -271.5 182.5t-359.5 57.5q-156 0 -283.5 -42t-219 -117t-141.5 -177.5t-50 -223.5q0 -125 49 -228t141.5 -177t223.5 -115t295 -41q201 0 350 57.5t268 186.5l211 -117q-162 -188 -364.5 -270t-479.5 -82q-195 0 -362.5 52t-290.5 145 q-297 223 -297 589q0 358 301 586q123 94 290 146.5t359 52.5q274 0 490.5 -97.5t363.5 -287.5z" />
<glyph unicode="D" horiz-adv-x="2181" d="M1253 223q111 0 204 38t159.5 105.5t104.5 161t38 203.5q0 119 -40 216t-112.5 167t-174 108t-226.5 38h-712v-1037h759zM1186 1483q195 0 350.5 -54.5t264 -152.5t166.5 -238.5t58 -312.5q0 -158 -60 -291t-179 -237q-109 -96 -250 -146.5t-303 -50.5h-985v1483h938z " />
<glyph unicode="E" horiz-adv-x="1923" d="M248 0v1483h1495v-223h-1249v-379h868v-224h-868v-434h1306v-223h-1552z" />
<glyph unicode="F" horiz-adv-x="1783" d="M494 1260v-379h868v-224h-868v-657h-246v1483h1495v-223h-1249z" />
<glyph unicode="G" horiz-adv-x="2236" d="M2066 766q0 -180 -67.5 -329.5t-190 -256t-298 -165t-390.5 -58.5q-195 0 -362.5 53t-290.5 146q-297 225 -297 587q0 358 301 586q127 98 297 149.5t373 51.5q250 0 445.5 -86t357.5 -273l-230 -114q-113 121 -257 184.5t-337 63.5q-139 0 -261 -37t-212 -103 q-221 -164 -221 -422q0 -123 49 -226t140.5 -178t219.5 -116t285 -41q242 0 405 98.5t234 284.5h-690v223h997v-22z" />
<glyph unicode="H" horiz-adv-x="2174" d="M1681 0v657h-1187v-657h-246v1483h246v-602h1187v602h246v-1483h-246z" />
<glyph unicode="I" horiz-adv-x="741" d="M248 0v1483h246v-1483h-246z" />
<glyph unicode="J" horiz-adv-x="1613" d="M1393 475q0 -254 -170 -387t-502 -133q-301 0 -463 131t-174 381h250q16 -158 111.5 -223.5t289.5 -65.5q215 0 313.5 66.5t98.5 230.5v1008h246v-1008z" />
<glyph unicode="K" horiz-adv-x="1968" d="M1653 0l-713 780l-446 -329v-451h-246v1483h246v-768l1038 768h354l-758 -561l840 -922h-315z" />
<glyph unicode="L" horiz-adv-x="1679" d="M248 0v1483h246v-1260h1144v-223h-1390z" />
<glyph unicode="M" horiz-adv-x="2533" d="M2040 0v1212h-6l-770 -966l-764 966h-6v-1212h-246v1483h305l713 -897l714 897h306v-1483h-246z" />
<glyph unicode="N" horiz-adv-x="2179" d="M1628 0l-1134 1217v-1217h-246v1483h305l1133 -1217v1217h245v-1483h-303z" />
<glyph unicode="O" horiz-adv-x="2244" d="M1819 743q0 258 -222 422q-90 66 -210.5 103t-262.5 37q-156 0 -283.5 -42t-220 -117t-143.5 -178.5t-51 -224.5q0 -125 49 -228t140.5 -177t220.5 -115t288 -41q160 0 288 41t218 115t139.5 177t49.5 228zM2075 743q0 -365 -299 -589q-123 -92 -290 -144.5t-362 -52.5 t-363.5 53t-291.5 146q-299 225 -299 587q0 356 303 586q125 94 292 147.5t359 53.5q190 0 358.5 -53.5t291.5 -147.5q301 -230 301 -586z" />
<glyph unicode="P" horiz-adv-x="1951" d="M1380 788q141 0 213 58.5t72 169.5q0 244 -301 244h-870v-472h886zM1423 1483q113 0 205 -33t155.5 -93.5t98.5 -146.5t35 -190q0 -221 -137.5 -338t-403.5 -117h-882v-565h-246v1483h1175z" />
<glyph unicode="Q" horiz-adv-x="2244" d="M1458 246q180 72 270.5 198.5t90.5 300.5q0 260 -224 424q-90 66 -210.5 103t-260.5 37q-141 0 -263 -37t-212 -103q-223 -162 -223 -424q0 -123 49 -226t140.5 -178t220.5 -116t288 -41q20 0 42 1t46 3l-159 179l233 69zM1395 -10q-139 -31 -271 -31q-195 0 -362.5 53.5 t-290.5 145.5q-301 227 -301 587q0 356 303 586q125 94 292 147.5t359 53.5q190 0 358.5 -53.5t291.5 -147.5q301 -227 301 -586q0 -225 -114 -397t-339 -282l184 -203l-229 -74z" />
<glyph unicode="R" horiz-adv-x="2064" d="M1380 788q139 0 212 58.5t73 169.5q0 244 -307 244h-864v-472h886zM1645 0l-402 565h-749v-565h-246v1483h1169q236 0 368 -125t132 -342q0 -98 -28.5 -174t-81 -130.5t-123 -87t-152.5 -46.5l397 -578h-284z" />
<glyph unicode="S" horiz-adv-x="1923" d="M1546 1135q-166 86 -330.5 127t-341.5 41q-231 0 -349.5 -54.5t-118.5 -146.5q0 -98 129 -144q61 -23 135.5 -31.5t164.5 -14.5l191 -11q102 -6 215 -20q279 -35 412 -135.5t133 -286.5q0 -236 -206 -365t-603 -129q-285 0 -503 60.5t-380 189.5l135 178 q180 -111 362.5 -162t387.5 -51q266 0 403.5 71t137.5 191q0 80 -46.5 123t-134.5 65.5t-216 32t-292 19.5q-172 12 -300 33.5t-214 64.5t-129 113t-43 176q0 209 192.5 330t555.5 121q479 0 803 -220z" />
<glyph unicode="T" horiz-adv-x="1744" d="M995 1260v-1260h-245v1260h-709v223h1663v-223h-709z" />
<glyph unicode="U" horiz-adv-x="2154" d="M1917 479q0 -115 -58.5 -210t-167 -165.5t-263 -109.5t-349.5 -39t-351.5 40t-265 109.5t-166.5 166t-58 208.5v1004h245v-944q0 -174 150.5 -266.5t445.5 -92.5q293 0 442.5 92.5t149.5 266.5v944h246v-1004z" />
<glyph unicode="V" horiz-adv-x="1900" d="M1092 0h-283l-799 1483h275l665 -1237l666 1237h274z" />
<glyph unicode="W" horiz-adv-x="2428" d="M1903 0h-318l-371 1239l-370 -1239h-314l-489 1483h274l373 -1241l371 1241h311l371 -1241l373 1241h274z" />
<glyph unicode="X" horiz-adv-x="1886" d="M1540 0l-598 598l-596 -598h-319l755 752l-729 731h320l571 -578l569 578h320l-729 -731l756 -752h-320z" />
<glyph unicode="Y" horiz-adv-x="1888" d="M1067 586v-586h-246v586l-811 897h305l631 -692l627 692h305z" />
<glyph unicode="Z" horiz-adv-x="1816" d="M102 0v223l1225 1037h-1206v223h1538v-223l-1225 -1037h1280v-223h-1612z" />
<glyph unicode="[" horiz-adv-x="921" d="M266 -289v1913h580v-115h-334v-1683h334v-115h-580z" />
<glyph unicode="\" horiz-adv-x="1110" d="M889 -20l-948 1503h278l950 -1503h-280z" />
<glyph unicode="]" horiz-adv-x="907" d="M78 -289v115h334v1683h-334v115h579v-1913h-579z" />
<glyph unicode="^" horiz-adv-x="1609" d="M432 754q209 72 406 71q152 0 272.5 -30.5t203.5 -86t127 -131t44 -165.5q0 -94 -44 -173t-126 -136.5t-199 -89t-262 -31.5q-219 0 -394 63.5t-333 204.5l192 141q119 -98 248 -141t283 -43q186 0 285.5 55t99.5 150q0 96 -108.5 156.5t-309.5 60.5q-231 0 -455 -113 l-200 107l205 637h1024v-224h-856z" />
<glyph unicode="_" d="M1024 -483h-1024v143h1024v-143z" />
<glyph unicode="`" d="M516 1370l-254 340h238l141 -340h-125z" />
<glyph unicode="a" horiz-adv-x="1730" d="M866 1051l-301 -557h600zM1434 0l-146 270h-846l-145 -270h-270l686 1260h305l686 -1260h-270z" />
<glyph unicode="b" horiz-adv-x="1875" d="M1239 223q119 0 182.5 39t63.5 105q0 74 -57.5 115.5t-167.5 41.5h-799v-301h778zM1255 748q88 0 137.5 40.5t49.5 106.5t-46 103.5t-132 37.5h-803v-288h794zM1532 651q104 -53 152.5 -126.5t48.5 -184.5q0 -166 -125 -253t-369 -87h-1024v1260h1036q100 0 180 -26 t135.5 -72t85 -110.5t29.5 -142.5q1 -160 -149 -258z" />
<glyph unicode="c" horiz-adv-x="1851" d="M1497 879q-96 98 -222 149t-292 51q-135 0 -243.5 -32.5t-185.5 -92t-118 -140.5t-41 -179q0 -100 41 -182t117 -141.5t185.5 -92.5t248.5 -33q162 0 286 49.5t228 157.5l211 -112q-147 -166 -322.5 -240t-408.5 -74q-190 0 -346 50.5t-265.5 139.5t-170 210.5 t-60.5 267.5q0 303 264 498q106 78 252 122.5t312 44.5q238 0 423 -83.5t332 -260.5z" />
<glyph unicode="d" horiz-adv-x="1884" d="M1087 223q90 0 166 30t130.5 83t85 127t30.5 160q0 92 -31.5 168.5t-91 131t-142.5 84t-185 29.5h-588v-813h626zM1030 1260q168 0 303 -46.5t230.5 -129.5t147.5 -196.5t52 -248.5q0 -72 -13 -133.5t-38.5 -118.5t-65.5 -111.5t-94 -111.5q-29 -31 -77 -59.5t-110 -52 t-138 -38t-156 -14.5h-856v1260h815z" />
<glyph unicode="e" horiz-adv-x="1673" d="M215 0v1260h1309v-224h-1063v-270h739v-223h-739v-320h1110v-223h-1356z" />
<glyph unicode="f" horiz-adv-x="1574" d="M461 1036v-270h739v-223h-739v-543h-246v1260h1309v-224h-1063z" />
<glyph unicode="g" horiz-adv-x="1927" d="M1788 651q0 -154 -58.5 -279.5t-165 -217t-259 -141.5t-338.5 -50q-168 0 -312.5 44t-251.5 122q-264 193 -264 504q0 305 264 500q111 80 257.5 125t320.5 45q211 0 381 -72t311 -221l-231 -115q-193 184 -475 184q-127 0 -231.5 -33.5t-181.5 -94t-119 -142.5t-42 -176 q0 -98 41 -180t116 -142.5t181.5 -93.5t235.5 -33q193 0 322.5 73t191.5 210h-568v223h875v-39z" />
<glyph unicode="h" horiz-adv-x="1894" d="M1434 0v543h-973v-543h-246v1260h246v-494h973v494h245v-1260h-245z" />
<glyph unicode="i" horiz-adv-x="675" d="M215 0v1260h246v-1260h-246z" />
<glyph unicode="j" horiz-adv-x="1433" d="M1219 410q0 -217 -148.5 -332t-439.5 -115q-532 0 -561 459h247q14 -133 90 -186.5t234 -53.5q174 0 253 50.5t79 177.5v850h246v-850z" />
<glyph unicode="k" horiz-adv-x="1738" d="M1419 0l-600 639l-358 -258v-381h-246v1260h246v-617l858 617h362l-671 -484l727 -776h-318z" />
<glyph unicode="l" horiz-adv-x="1484" d="M215 0v1260h246v-1037h973v-223h-1219z" />
<glyph unicode="m" horiz-adv-x="2197" d="M1737 0v1044l-6 -8l-633 -858l-631 866l-6 -8v-1036h-246v1260h369l514 -713l516 713h368v-1260h-245z" />
<glyph unicode="n" horiz-adv-x="1898" d="M1317 0l-856 1051v-1051h-246v1260h367l856 -1051v1051h245v-1260h-366z" />
<glyph unicode="o" horiz-adv-x="1935" d="M1540 633q0 96 -42 178t-116.5 141.5t-180 93t-232.5 33.5q-129 0 -234.5 -33.5t-181.5 -94t-118 -142.5t-42 -176q0 -98 41 -181t116 -142.5t181.5 -92.5t237.5 -33t236.5 33t180 92.5t114.5 142.5t40 181zM1796 633q0 -311 -264 -504q-106 -78 -250.5 -122t-312.5 -44 t-313.5 44t-252.5 122q-264 193 -264 504q0 307 267 500q109 78 254 124t309 46t308 -46.5t253 -123.5q266 -195 266 -500z" />
<glyph unicode="p" horiz-adv-x="1712" d="M1196 686q223 0 223 170q0 94 -57 137t-180 43h-721v-350h735zM1233 1260q100 0 181 -29t138.5 -81t88 -126t30.5 -164q0 -193 -123 -295t-356 -102h-731v-463h-246v1260h1018z" />
<glyph unicode="q" horiz-adv-x="1935" d="M1257 238q283 121 283 395q0 96 -42 178t-116.5 142.5t-180 94t-232.5 33.5q-129 0 -234.5 -33.5t-181.5 -94t-118 -142.5t-42 -178q0 -98 40 -181t116 -142.5t181.5 -92.5t238.5 -33h37l-140 148l236 69zM1192 -14q-59 -10 -114.5 -16.5t-108.5 -6.5q-168 0 -313.5 45 t-252.5 123q-264 193 -264 502q0 307 264 502q109 80 254.5 125t311.5 45t311 -46.5t252 -123.5q264 -195 264 -502q0 -186 -93 -329.5t-280 -240.5l158 -172l-233 -71z" />
<glyph unicode="r" horiz-adv-x="1830" d="M1196 686q223 0 223 170q0 94 -57 137t-180 43h-721v-350h735zM1415 0l-330 463h-624v-463h-246v1260h1018q100 0 181 -29t138.5 -81t88 -126t30.5 -164q0 -154 -80 -251t-233 -132l340 -477h-283z" />
<glyph unicode="s" horiz-adv-x="1667" d="M1356 948q-127 66 -258 97.5t-277 31.5q-420 0 -420 -149q0 -51 41 -77t117 -38t184.5 -18.5t245.5 -20.5q147 -14 258 -39.5t183.5 -69.5t108.5 -110t36 -160q0 -203 -179 -313.5t-528 -110.5q-485 0 -776 222l133 174q129 -90 289 -136.5t350 -46.5q219 0 333 54.5 t114 144.5q0 102 -144 141q-104 29 -246.5 31t-322.5 18q-233 23 -344 100t-111 228q0 180 174.5 285.5t499.5 105.5q426 0 690 -184z" />
<glyph unicode="t" horiz-adv-x="1552" d="M899 1036v-1036h-246v1036h-602v224h1450v-224h-602z" />
<glyph unicode="u" horiz-adv-x="1865" d="M1665 414q0 -98 -50 -180t-145.5 -142.5t-230.5 -94.5t-305 -34t-306 34t-231.5 94.5t-145.5 142t-50 180.5v846h245v-797q0 -135 123 -207t365 -72t363.5 72t121.5 207v797h246v-846z" />
<glyph unicode="v" horiz-adv-x="1695" d="M989 0h-282l-697 1260h273l565 -1047l565 1047h273z" />
<glyph unicode="w" horiz-adv-x="2129" d="M1661 0h-295l-301 1053l-301 -1053h-295l-428 1260h272l303 -1047l302 1047h294l301 -1047l304 1047h272z" />
<glyph unicode="x" horiz-adv-x="1675" d="M1339 0l-501 494l-502 -494h-309l655 639l-633 621h309l480 -476l479 476h309l-633 -621l656 -639h-310z" />
<glyph unicode="y" horiz-adv-x="1695" d="M969 496v-496h-246v496l-713 764h299l539 -574l538 574h300z" />
<glyph unicode="z" horiz-adv-x="1570" d="M82 0v223l1008 813h-994v224h1346v-224l-1010 -813h1057v-223h-1407z" />
<glyph unicode="{" horiz-adv-x="845" d="M743 -289q-139 0 -231 16.5t-147.5 59.5t-78 116.5t-22.5 186.5q0 68 2 126t2 112q0 84 -14 146.5t-68 109.5q-23 18 -57.5 38.5t-83.5 45.5q223 98 223 258v374q0 90 23.5 153t74 100.5t127 54t185.5 16.5h65v-115q-119 0 -174 -57t-55 -180q0 -31 1 -74t1 -96 q0 -172 -27.5 -277.5t-87.5 -152.5v-4q63 -47 90 -150.5t27 -269.5q0 -47 -2 -97.5t-2 -103.5q0 -115 54.5 -168t168.5 -53h6v-115z" />
<glyph unicode="|" horiz-adv-x="1607" d="M436 401q51 -92 164 -144t270 -52q174 0 267.5 52t93.5 136q0 86 -96.5 145.5t-264.5 59.5q-137 0 -248.5 -50.5t-185.5 -146.5zM377 610q98 96 224 145.5t278 49.5q133 0 243.5 -32t190.5 -85t124 -126t44 -154q0 -92 -43 -171t-123 -136.5t-192.5 -89t-252.5 -31.5 q-168 0 -305 47t-233 133t-149.5 203.5t-53.5 259.5q0 219 125 381q102 133 257 204.5t347 71.5q158 0 298 -60.5t280 -185.5l-183 -135q-80 82 -176 118t-223 36q-102 0 -190.5 -32t-151.5 -87t-99 -132t-36 -165v-27z" />
<glyph unicode="}" horiz-adv-x="829" d="M778 668q-68 -29 -111.5 -62t-71.5 -78t-39 -103t-11 -136q0 -53 7 -102.5t7 -96.5q0 -111 -22.5 -183.5t-76.5 -116.5t-143.5 -61.5t-224.5 -17.5h-12v115h6q119 0 171 55.5t52 177.5q0 43 -2 89.5t-2 95.5q0 170 27.5 274.5t89.5 149.5v4q-115 84 -115 428q0 31 1 75 t1 103q0 231 -223 231h-6v115h65q106 0 184.5 -16.5t128.5 -55.5t73.5 -100t23.5 -152v-374q0 -84 55 -146.5t168 -111.5z" />
<glyph unicode="~" horiz-adv-x="1462" d="M539 0h-287l833 1036h-1015v224h1300v-224z" />
<glyph horiz-adv-x="1560" d="M1405 1239q-59 27 -143 39t-150 12q-188 0 -319 -90t-187 -244h727l-39 -133h-727q-10 -84 0 -168h682l-32 -133h-611q55 -152 186.5 -239.5t317.5 -87.5q72 0 151.5 11t143.5 36l14 -244q-80 -23 -175 -33t-181 -10q-158 0 -294 37t-245.5 109.5t-185.5 178t-111 242.5 h-245l38 133h185q-6 84 0 168h-223l38 133h209q35 131 112 235.5t185.5 178.5t243.5 114t289 40q104 0 207.5 -14.5t201.5 -45.5z" />
<glyph unicode="&#x20ac;" horiz-adv-x="1560" d="M1405 1239q-59 27 -143 39t-150 12q-188 0 -319 -90t-187 -244h727l-39 -133h-727q-10 -84 0 -168h682l-32 -133h-611q55 -152 186.5 -239.5t317.5 -87.5q72 0 151.5 11t143.5 36l14 -244q-80 -23 -175 -33t-181 -10q-158 0 -294 37t-245.5 109.5t-185.5 178t-111 242.5 h-245l38 133h185q-6 84 0 168h-223l38 133h209q35 131 112 235.5t185.5 178.5t243.5 114t289 40q104 0 207.5 -14.5t201.5 -45.5z" />
<glyph horiz-adv-x="1816" d="M100 0v223l1225 1037h-1206v223h1538v-223l-1225 -1037h1280v-223h-1612zM989 1595h-164l-313 340h209l186 -203l186 203h209z" />
<glyph unicode="&#x17d;" horiz-adv-x="1816" d="M100 0v223l1225 1037h-1206v223h1538v-223l-1225 -1037h1280v-223h-1612zM989 1595h-164l-313 340h209l186 -203l186 203h209z" />
<glyph horiz-adv-x="1570" d="M80 0v223l1008 813h-994v224h1346v-224l-1010 -813h1057v-223h-1407zM866 1368h-164l-313 340h209l186 -203l186 203h209z" />
<glyph unicode="&#x17e;" horiz-adv-x="1570" d="M80 0v223l1008 813h-994v224h1346v-224l-1010 -813h1057v-223h-1407zM866 1368h-164l-313 340h209l186 -203l186 203h209z" />
<glyph unicode="&#xa1;" horiz-adv-x="731" d="M221 0v113l58 979h196l57 -979v-113h-311zM217 1260v223h318v-223h-318z" />
<glyph unicode="&#xa2;" horiz-adv-x="1617" d="M700 1042q-135 -37 -205.5 -116.5t-70.5 -184.5q0 -111 70.5 -187.5t205.5 -111.5v600zM1247 897q-127 123 -301 147v-600q180 18 305 146l203 -105q-201 -229 -508 -258v-227h-246v227q-272 47 -409 178.5t-137 335.5q0 199 139 332t407 184v226h246v-230 q315 -37 518 -282z" />
<glyph unicode="&#xa3;" horiz-adv-x="1501" d="M1442 63q-82 -37 -155 -56t-144 -19q-59 0 -123 10t-130.5 22.5t-137 22.5t-144.5 10q-100 0 -194.5 -25.5t-190.5 -76.5l-139 221q246 193 246 403q0 37 -17 99h-243v196h180q-23 86 -23 150q0 111 43 200t125 151.5t199 97t264 34.5q154 0 286 -48t259 -148l-123 -187 q-102 84 -209.5 123t-234.5 39q-362 0 -363 -268q0 -57 29 -144h534v-196h-485q12 -66 12 -121q0 -86 -31.5 -165t-85.5 -128q74 6 121 6q74 0 144.5 -9t136 -20.5t128 -20.5t122.5 -9q119 0 231 59z" />
<glyph unicode="&#xa4;" horiz-adv-x="1640" d="M1257 627q0 92 -31.5 171t-90 135t-139.5 88t-177 32t-176 -32t-138.5 -88t-90 -134t-31.5 -172q0 -92 33 -169t91 -133.5t139 -87t177 -30.5t176 30.5t137.5 87t89 133.5t31.5 169zM1505 627q0 -170 -79.5 -312.5t-223.5 -228.5q-176 -106 -383 -106t-383 106 q-141 86 -221 228.5t-80 312.5q0 133 52.5 250.5t154.5 216.5q94 90 217 137t264 47t264 -47t216 -137q100 -96 151 -215t51 -252z" />
<glyph unicode="&#xa5;" horiz-adv-x="1933" d="M1339 870h201v-196h-379l-80 -88v-86h459v-197h-459v-303h-245v303h-459v197h459v86l-80 88h-379v196h201l-553 613h305l631 -692l626 692h305z" />
<glyph unicode="&#xa6;" d="M588 -350h-150v758h150v-758zM588 674h-150v758h150v-758z" />
<glyph unicode="&#xa7;" horiz-adv-x="1851" d="M1333 639q72 53 72 127q0 131 -213 168q-61 12 -131 15l-146 6q-76 3 -158.5 8.5t-170.5 17.5q-145 -41 -146 -131q0 -61 69 -95t208 -50q59 -6 128.5 -9.5t147.5 -8.5t163 -16.5t177 -31.5zM1444 1343q-289 145 -584 146q-193 0 -293 -44t-100 -116q0 -76 111 -112 q86 -29 208.5 -33t276.5 -21q152 -16 264.5 -41.5t186 -69.5t110.5 -111t37 -161q0 -82 -28.5 -139t-96.5 -104q98 -100 98 -236q0 -205 -180 -318.5t-530 -113.5q-248 0 -441.5 54t-341.5 169l138 180q160 -100 319.5 -148t333.5 -48q217 0 331.5 57t114.5 154 q0 111 -143 149q-106 31 -251.5 34t-328.5 19q-238 23 -350 101t-112 231q0 86 31.5 144.5t105.5 105.5q-59 47 -85 102.5t-26 126.5q0 184 169 291t489 107q225 0 401 -47t311 -152z" />
<glyph unicode="&#xa8;" d="M438 1528q0 -53 -39 -90t-92 -37t-91 37t-38 90t38 92t91 39t92 -39t39 -92zM850 1528q0 -51 -39 -89t-92 -38t-91 37t-38 90t38 92t91 39t92 -39t39 -92z" />
<glyph unicode="&#xa9;" horiz-adv-x="1705" d="M1204 561q-70 -287 -354 -287q-176 0 -280.5 118t-104.5 329q0 106 28.5 191t80 143.5t124 90.5t162.5 32q264 0 334 -267h-129q-55 164 -201 164q-123 0 -189.5 -89t-66.5 -263q0 -166 68.5 -255t187.5 -89q156 0 211 182h129zM1501 725q0 131 -48 249t-140 210 q-188 188 -461 188q-266 0 -453 -186q-94 -94 -143 -212t-49 -249q0 -129 48 -244.5t142 -210.5q190 -190 455 -190q133 0 250 48t213 144q186 187 186 453zM1587 725q0 -305 -211 -516q-109 -109 -243 -164t-281 -55q-299 0 -516 217t-217 518q0 150 55 282t164 240 q213 213 514 213q154 0 287 -55t237.5 -159.5t157.5 -235.5t53 -285z" />
<glyph unicode="&#xaa;" horiz-adv-x="1142" d="M571 1319l-180 -336h361zM940 637l-96 178h-545l-96 -178h-203l465 850h213l465 -850h-203z" />
<glyph unicode="&#xab;" horiz-adv-x="1482" d="M467 657l326 -331h-301l-338 331l346 334h299zM999 657l326 -331h-301l-340 331l348 334h297z" />
<glyph unicode="&#xac;" horiz-adv-x="1628" d="M1243 379q0 92 -105.5 130t-322.5 38t-323.5 -38t-106.5 -130q0 -172 430 -172q428 0 428 172zM1165 909q0 143 -350 144q-352 0 -352 -144q0 -76 89 -116.5t263 -40.5t262 40.5t88 116.5zM1255 664q129 -53 193.5 -131t64.5 -171q0 -180 -177 -281t-521 -101t-522 101 t-178 281q0 94 64.5 171t193.5 131q-172 98 -172 247q0 168 156.5 265.5t453.5 97.5q299 0 457.5 -97.5t158.5 -265.5q0 -149 -172 -247z" />
<glyph unicode="&#xad;" horiz-adv-x="1087" d="M123 543v223h842v-223h-842z" />
<glyph unicode="&#xae;" horiz-adv-x="776" d="M385 1186q68 0 68 49t-72 49h-45v-98h49zM451 997l-66 142h-49v-142h-72v342h121q145 0 145 -100q0 -63 -73 -90l75 -152h-81zM657 1169q0 55 -20.5 104.5t-56 85.5t-86 56.5t-107.5 20.5q-55 0 -104.5 -20.5t-85 -56.5t-56 -84t-20.5 -106q0 -57 20.5 -106t57.5 -86 t85 -57.5t103 -20.5q57 0 106.5 20.5t86 57.5t57 86t20.5 106zM705 1169q0 -66 -25 -123t-69 -100t-103 -67.5t-127 -24.5q-63 0 -119.5 24.5t-98.5 67.5t-66.5 102.5t-24.5 127.5q0 61 24.5 117.5t67.5 99.5t100.5 67.5t122.5 24.5q68 0 126 -24.5t100 -66.5t67 -99.5 t25 -125.5z" />
<glyph unicode="&#xaf;" d="M160 1436v151h702v-151h-702z" />
<glyph unicode="&#x2c9;" d="M160 1436v151h702v-151h-702z" />
<glyph unicode="&#xb0;" horiz-adv-x="1089" d="M770 1145q0 45 -17.5 84t-48 68.5t-71.5 47t-86 17.5q-47 0 -88 -17.5t-72 -47t-48 -68.5t-17 -84q0 -43 17 -82t48 -68.5t72 -46t88 -16.5t88 16.5t70.5 46t47 68.5t17.5 82zM918 1145q0 -145 -113 -252q-104 -100 -258 -100q-76 0 -142.5 26.5t-117.5 73.5 q-113 106 -113 252q0 145 113 252q104 100 260 100q154 0 258 -100q113 -107 113 -252z" />
<glyph unicode="&#xb1;" horiz-adv-x="1705" d="M1452 29h-1198v141h1198v-141zM924 852h528v-139h-528v-340h-142v340h-528v139h528v340h142v-340z" />
<glyph unicode="&#xb2;" horiz-adv-x="1132" d="M37 592q10 170 108.5 276.5t298.5 163.5q96 29 177 46.5t141 45.5q70 37 69 97q0 61 -67.5 100t-196.5 39q-109 0 -201 -30t-182 -95l-102 98q223 160 489 160q96 0 177 -21.5t138.5 -59.5t89.5 -89t32 -113q0 -94 -63.5 -151.5t-194.5 -89.5q-72 -18 -142.5 -32.5 t-140.5 -35.5q-88 -29 -145.5 -69.5t-92.5 -106.5h803v-133h-995z" />
<glyph unicode="&#xb3;" horiz-adv-x="1163" d="M838 1061q98 -31 148 -88.5t50 -130.5q0 -123 -132 -193.5t-386 -70.5q-160 0 -280.5 42t-223.5 140l109 98q92 -78 191.5 -111.5t222.5 -33.5q162 0 244.5 39t82.5 108q0 133 -389 133h-78v119h150q135 0 203.5 35t68.5 98q0 115 -266 115q-201 0 -375 -100l-92 92 q113 72 226.5 106.5t240.5 34.5q209 0 321.5 -65.5t112.5 -176.5q1 -131 -149 -190z" />
<glyph unicode="&#xb4;" d="M512 1370h-125l141 340h238z" />
<glyph unicode="&#xb5;" horiz-adv-x="1150" d="M256 471q-14 -63 -14 -133q0 -100 52 -153.5t148 -53.5q137 0 212 98.5t120 305.5l115 536h178l-156 -731q-10 -45 -16 -78t-6 -55q0 -37 16.5 -52.5t55.5 -15.5h14q8 0 18 2l-30 -143q-29 -6 -55.5 -8t-53.5 -2q-66 0 -98.5 29.5t-50.5 99.5q-88 -131 -271 -131 q-82 0 -142.5 27.5t-113.5 88.5l-110 -530h-181l318 1499h180z" />
<glyph unicode="&#x3bc;" horiz-adv-x="1150" d="M256 471q-14 -63 -14 -133q0 -100 52 -153.5t148 -53.5q137 0 212 98.5t120 305.5l115 536h178l-156 -731q-10 -45 -16 -78t-6 -55q0 -37 16.5 -52.5t55.5 -15.5h14q8 0 18 2l-30 -143q-29 -6 -55.5 -8t-53.5 -2q-66 0 -98.5 29.5t-50.5 99.5q-88 -131 -271 -131 q-82 0 -142.5 27.5t-113.5 88.5l-110 -530h-181l318 1499h180z" />
<glyph unicode="&#xb6;" horiz-adv-x="1935" d="M872 1260h-217q-301 0 -301 -244q0 -111 72 -169.5t213 -58.5h233v472zM1384 1260h-266v-472h266v472zM1384 -338v903h-266v-903h-246v903h-229q-266 0 -403.5 117t-137.5 338q0 104 35 190t98.5 146.5t154.5 93.5t206 33h1034v-1821h-246z" />
<glyph unicode="&#xb7;" horiz-adv-x="952" d="M317 543v223h318v-223h-318z" />
<glyph unicode="&#x2219;" horiz-adv-x="952" d="M317 543v223h318v-223h-318z" />
<glyph unicode="&#xb8;" d="M514 -94q80 -8 122 -49t42 -107q0 -76 -59.5 -124t-163.5 -48q-98 0 -197 39l39 74q63 -25 106 -25q47 0 76 23.5t29 54.5q0 23 -14.5 36t-36.5 13q-31 0 -56 -35l-63 29l61 113l60 114h123z" />
<glyph unicode="&#xb9;" horiz-adv-x="518" d="M190 592v741l-157 -61v129q88 23 160 80h159v-889h-162z" />
<glyph unicode="&#xba;" horiz-adv-x="1245" d="M977 1067q0 57 -25.5 107.5t-73 87t-112 57t-143.5 20.5q-80 0 -144.5 -20.5t-112 -57t-73 -87t-25.5 -107.5q0 -123 96.5 -198.5t258.5 -75.5q80 0 145.5 20.5t111.5 57t71.5 87t25.5 109.5zM1163 1067q0 -96 -39 -176t-110.5 -138.5t-171 -91t-219.5 -32.5 q-121 0 -220.5 32.5t-170 91t-110.5 139.5t-40 175q0 92 40 173t111.5 139.5t171 92t218.5 33.5t218 -33.5t170.5 -92t111.5 -139.5t40 -173z" />
<glyph unicode="&#xbb;" horiz-adv-x="1482" d="M459 326h-301l325 331l-329 334h297l348 -334zM991 326h-301l326 331l-332 334h299l346 -334z" />
<glyph unicode="&#xbc;" horiz-adv-x="2142" d="M1739 684l-451 -395h451v395zM1894 164v-164h-155v164h-615v125l619 540h151v-540h213v-125h-213zM268 -20h-280l1327 1503h278zM182 651v692l-149 -57v119q82 25 149 76h154v-830h-154z" />
<glyph unicode="&#xbd;" horiz-adv-x="2177" d="M1133 0q8 158 101 258t286 154q92 25 169.5 41t133.5 43q66 35 65 90q0 59 -64.5 95t-187.5 36q-102 0 -190 -29t-174 -88l-98 92q111 76 224 112t242 36q92 0 169 -19.5t132.5 -54.5t85 -83t29.5 -105q0 -88 -60.5 -141.5t-185.5 -86.5q-68 -16 -136 -29.5t-134 -31.5 q-84 -27 -138 -65t-87 -99h766v-125h-948zM268 -20h-280l1327 1503h278zM182 651v692l-149 -57v119q82 25 149 76h154v-830h-154z" />
<glyph unicode="&#xbe;" horiz-adv-x="2758" d="M2355 684l-450 -395h450v395zM2511 164v-164h-156v164h-614v125l618 540h152v-540h213v-125h-213zM885 -20h-281l1327 1503h279zM801 1087q94 -29 142 -81t48 -121q0 -115 -127 -180.5t-368 -65.5q-154 0 -268.5 38t-213.5 130l105 92q88 -72 183 -103.5t212 -31.5 q154 0 233.5 37t79.5 102q0 123 -372 123h-74v111h143q129 0 194.5 32.5t65.5 90.5q0 109 -254 108q-193 0 -358 -92l-88 84q213 131 444 131q199 0 307.5 -60.5t108.5 -164.5q0 -120 -143 -179z" />
<glyph unicode="&#xbf;" horiz-adv-x="1488" d="M1444 274q-272 -285 -680 -284q-160 0 -284 31.5t-210 89t-131 138.5t-45 179q0 74 17.5 130t55.5 98t96.5 73t139.5 53q86 25 156 40.5t123 41.5q123 59 131 228h199q2 -20 2 -33v-17q0 -78 -19.5 -139t-59.5 -108t-102.5 -84t-146.5 -68q-74 -27 -134 -46t-103 -43 t-67 -54.5t-24 -79.5q0 -102 102.5 -157.5t303.5 -55.5q326 0 510 201zM750 1260v223h317v-223h-317z" />
<glyph unicode="&#xc0;" horiz-adv-x="1939" d="M969 1272l-379 -717h756zM1638 0l-172 332h-997l-172 -332h-268l784 1483h309l785 -1483h-269zM971 1597l-254 340h238l141 -340h-125z" />
<glyph unicode="&#xc1;" horiz-adv-x="1939" d="M969 1272l-379 -717h756zM1638 0l-172 332h-997l-172 -332h-268l784 1483h309l785 -1483h-269zM967 1597h-125l141 340h238z" />
<glyph unicode="&#xc2;" horiz-adv-x="1939" d="M969 1272l-379 -717h756zM1638 0l-172 332h-997l-172 -332h-268l784 1483h309l785 -1483h-269zM1153 1595l-186 203l-186 -203h-209l313 340h164l313 -340h-209z" />
<glyph unicode="&#xc3;" horiz-adv-x="1939" d="M969 1272l-379 -717h756zM1638 0l-172 332h-997l-172 -332h-268l784 1483h309l785 -1483h-269zM1315 1802q-92 -172 -211 -172q-41 0 -79 12t-71 26l-63 25q-29 12 -51 13q-51 0 -109 -99l-120 95q66 78 117 118.5t104 40.5q37 0 71.5 -12t67.5 -27l64 -26q31 -12 59 -13 q35 0 58.5 24t52.5 71z" />
<glyph unicode="&#xc4;" horiz-adv-x="1939" d="M969 1272l-379 -717h756zM1638 0l-172 332h-997l-172 -332h-268l784 1483h309l785 -1483h-269zM893 1755q0 -53 -39 -90t-92 -37t-91 37t-38 90t38 92t91 39t92 -39t39 -92zM1305 1755q0 -51 -39 -89t-92 -38t-91 37t-38 90t38 92t91 39t92 -39t39 -92z" />
<glyph unicode="&#xc5;" horiz-adv-x="1939" d="M971 1272l-379 -717h756zM1079 1784q0 35 -30.5 60.5t-77.5 25.5t-77 -25.5t-30 -60.5t29 -59.5t78 -24.5q47 0 77.5 24.5t30.5 59.5zM1640 0l-172 332h-997l-172 -332h-268l784 1483h309l785 -1483h-269zM1202 1784q0 -39 -17.5 -74t-48 -60.5t-72.5 -40t-93 -14.5 q-49 0 -91 14.5t-73 40t-48.5 60.5t-17.5 74t17.5 73.5t48.5 60.5t73 41t91 15t92 -15t73.5 -41t48 -60.5t17.5 -73.5z" />
<glyph unicode="&#xc6;" horiz-adv-x="2871" d="M1196 1270l-504 -715h504v715zM1196 0v332h-664l-231 -332h-270l1046 1483h1614v-223h-1249v-379h868v-224h-868v-434h1306v-223h-1552z" />
<glyph unicode="&#xc7;" horiz-adv-x="2142" d="M1755 1065q-117 123 -271.5 181.5t-359.5 58.5q-156 0 -283.5 -42t-219 -117t-141.5 -177.5t-50 -223.5q0 -125 49 -228t141.5 -177t223.5 -115t295 -41q199 0 349 57.5t269 186.5l211 -117q-154 -182 -352.5 -267t-464.5 -85h-10l-33 -53q80 -8 122 -49t42 -107 q0 -74 -59.5 -123t-163.5 -49q-98 0 -197 39l39 74q63 -25 106 -25q47 0 76 24.5t29 53.5q0 23 -14.5 36t-36.5 13q-31 0 -56 -35l-63 29l40 73l54 103q-205 23 -363.5 88.5t-267 166.5t-165 234.5t-56.5 292.5q0 358 301 586q123 94 290 146.5t359 52.5q276 0 492.5 -97.5 t361.5 -287.5z" />
<glyph unicode="&#xc8;" horiz-adv-x="1923" d="M246 0v1483h1495v-223h-1249v-379h868v-224h-868v-434h1306v-223h-1552zM981 1597l-254 340h238l141 -340h-125z" />
<glyph unicode="&#xc9;" horiz-adv-x="1923" d="M246 0v1483h1495v-223h-1249v-379h868v-224h-868v-434h1306v-223h-1552zM977 1597h-125l141 340h238z" />
<glyph unicode="&#xca;" horiz-adv-x="1923" d="M246 0v1483h1495v-223h-1249v-379h868v-224h-868v-434h1306v-223h-1552zM1163 1595l-186 203l-186 -203h-209l313 340h164l313 -340h-209z" />
<glyph unicode="&#xcb;" horiz-adv-x="1923" d="M246 0v1483h1495v-223h-1249v-379h868v-224h-868v-434h1306v-223h-1552zM903 1755q0 -53 -39 -90t-92 -37t-91 37t-38 90t38 92t91 39t92 -39t39 -92zM1315 1755q0 -51 -39 -89t-92 -38t-91 37t-38 90t38 92t91 39t92 -39t39 -92z" />
<glyph unicode="&#xcc;" horiz-adv-x="741" d="M246 0v1483h246v-1483h-246zM373 1597l-254 340h238l141 -340h-125z" />
<glyph unicode="&#xcd;" horiz-adv-x="741" d="M246 0v1483h246v-1483h-246zM369 1597h-125l141 340h238z" />
<glyph unicode="&#xce;" horiz-adv-x="741" d="M246 0v1483h246v-1483h-246zM555 1595l-186 203l-186 -203h-209l313 340h164l313 -340h-209z" />
<glyph unicode="&#xcf;" horiz-adv-x="741" d="M246 0v1483h246v-1483h-246zM295 1755q0 -53 -39 -90t-92 -37t-91 37t-38 90t38 92t91 39t92 -39t39 -92zM707 1755q0 -51 -39 -89t-92 -38t-91 37t-38 90t38 92t91 39t92 -39t39 -92z" />
<glyph unicode="&#xd0;" horiz-adv-x="2181" d="M1253 223q111 0 204 38t159.5 105.5t104.5 161t38 203.5q0 119 -40 216t-112.5 167t-174 108t-226.5 38h-712v-373h686v-223h-686v-441h759zM1186 1483q195 0 350.5 -54.5t264 -152.5t166.5 -238.5t58 -312.5q0 -158 -60 -291t-179 -237q-109 -96 -250 -146.5t-303 -50.5 h-985v664h-148v223h148v596h938z" />
<glyph unicode="&#xd1;" horiz-adv-x="2179" d="M1626 0l-1134 1217v-1217h-246v1483h305l1133 -1217v1217h245v-1483h-303zM1433 1802q-92 -172 -211 -172q-41 0 -79 12t-71 26l-63 25q-29 12 -51 13q-51 0 -109 -99l-120 95q66 78 117 118.5t104 40.5q37 0 71.5 -12t67.5 -27l64 -26q31 -12 59 -13q35 0 58.5 24 t52.5 71z" />
<glyph unicode="&#xd2;" horiz-adv-x="2244" d="M1817 743q0 258 -222 422q-90 66 -210.5 103t-262.5 37q-156 0 -283.5 -42t-220 -117t-143.5 -178.5t-51 -224.5q0 -125 49 -228t140.5 -177t220.5 -115t288 -41q160 0 288 41t218 115t139.5 177t49.5 228zM2073 743q0 -365 -299 -589q-123 -92 -290 -144.5t-362 -52.5 t-363.5 53t-291.5 146q-299 225 -299 587q0 356 303 586q125 94 292 147.5t359 53.5q190 0 358.5 -53.5t291.5 -147.5q301 -230 301 -586zM1122 1597l-254 340h238l141 -340h-125z" />
<glyph unicode="&#xd3;" horiz-adv-x="2244" d="M1817 743q0 258 -222 422q-90 66 -210.5 103t-262.5 37q-156 0 -283.5 -42t-220 -117t-143.5 -178.5t-51 -224.5q0 -125 49 -228t140.5 -177t220.5 -115t288 -41q160 0 288 41t218 115t139.5 177t49.5 228zM2073 743q0 -365 -299 -589q-123 -92 -290 -144.5t-362 -52.5 t-363.5 53t-291.5 146q-299 225 -299 587q0 356 303 586q125 94 292 147.5t359 53.5q190 0 358.5 -53.5t291.5 -147.5q301 -230 301 -586zM1118 1597h-125l141 340h238z" />
<glyph unicode="&#xd4;" horiz-adv-x="2244" d="M1817 743q0 258 -222 422q-90 66 -210.5 103t-262.5 37q-156 0 -283.5 -42t-220 -117t-143.5 -178.5t-51 -224.5q0 -125 49 -228t140.5 -177t220.5 -115t288 -41q160 0 288 41t218 115t139.5 177t49.5 228zM2073 743q0 -365 -299 -589q-123 -92 -290 -144.5t-362 -52.5 t-363.5 53t-291.5 146q-299 225 -299 587q0 356 303 586q125 94 292 147.5t359 53.5q190 0 358.5 -53.5t291.5 -147.5q301 -230 301 -586zM1304 1595l-186 203l-186 -203h-209l313 340h164l313 -340h-209z" />
<glyph unicode="&#xd5;" horiz-adv-x="2244" d="M1817 743q0 258 -222 422q-90 66 -210.5 103t-262.5 37q-156 0 -283.5 -42t-220 -117t-143.5 -178.5t-51 -224.5q0 -125 49 -228t140.5 -177t220.5 -115t288 -41q160 0 288 41t218 115t139.5 177t49.5 228zM2073 743q0 -365 -299 -589q-123 -92 -290 -144.5t-362 -52.5 t-363.5 53t-291.5 146q-299 225 -299 587q0 356 303 586q125 94 292 147.5t359 53.5q190 0 358.5 -53.5t291.5 -147.5q301 -230 301 -586zM1466 1802q-92 -172 -211 -172q-41 0 -79 12t-71 26l-63 25q-29 12 -51 13q-51 0 -109 -99l-120 95q66 78 117 118.5t104 40.5 q37 0 71.5 -12t67.5 -27l64 -26q31 -12 59 -13q35 0 58.5 24t52.5 71z" />
<glyph unicode="&#xd6;" horiz-adv-x="2244" d="M1817 743q0 258 -222 422q-90 66 -210.5 103t-262.5 37q-156 0 -283.5 -42t-220 -117t-143.5 -178.5t-51 -224.5q0 -125 49 -228t140.5 -177t220.5 -115t288 -41q160 0 288 41t218 115t139.5 177t49.5 228zM2073 743q0 -365 -299 -589q-123 -92 -290 -144.5t-362 -52.5 t-363.5 53t-291.5 146q-299 225 -299 587q0 356 303 586q125 94 292 147.5t359 53.5q190 0 358.5 -53.5t291.5 -147.5q301 -230 301 -586zM1044 1755q0 -53 -39 -90t-92 -37t-91 37t-38 90t38 92t91 39t92 -39t39 -92zM1456 1755q0 -51 -39 -89t-92 -38t-91 37t-38 90t38 92 t91 39t92 -39t39 -92z" />
<glyph unicode="&#xd7;" horiz-adv-x="1705" d="M1329 1178l98 -99l-469 -469l469 -469l-98 -96l-469 467l-469 -467l-98 96l469 469l-469 469l98 99l469 -469z" />
<glyph unicode="&#xd8;" horiz-adv-x="2244" d="M1423 1255q-152 49 -299 50q-141 0 -263 -37t-212 -103q-223 -160 -223 -422q0 -135 53 -236t168 -192zM782 244q166 -61 342 -62q160 0 288 41t218 115t139.5 177t49.5 228q0 139 -62.5 247t-193.5 198zM1712 1370q362 -229 363 -627q0 -362 -299 -589 q-123 -92 -290 -144.5t-362 -52.5q-127 0 -247.5 25.5t-243.5 76.5l-125 -149h-195l187 225q-330 225 -330 608q0 356 303 586q125 94 292 147.5t359 53.5q223 0 453 -90l125 151h192z" />
<glyph unicode="&#xd9;" horiz-adv-x="2154" d="M1915 479q0 -115 -58.5 -210t-167 -165.5t-263 -109.5t-349.5 -39t-351.5 40t-265 109.5t-166.5 166t-58 208.5v1004h245v-944q0 -174 150.5 -266.5t445.5 -92.5q293 0 442.5 92.5t149.5 266.5v944h246v-1004zM1077 1597l-254 340h238l141 -340h-125z" />
<glyph unicode="&#xda;" horiz-adv-x="2154" d="M1915 479q0 -115 -58.5 -210t-167 -165.5t-263 -109.5t-349.5 -39t-351.5 40t-265 109.5t-166.5 166t-58 208.5v1004h245v-944q0 -174 150.5 -266.5t445.5 -92.5q293 0 442.5 92.5t149.5 266.5v944h246v-1004zM1073 1597h-125l141 340h238z" />
<glyph unicode="&#xdb;" horiz-adv-x="2154" d="M1915 479q0 -115 -58.5 -210t-167 -165.5t-263 -109.5t-349.5 -39t-351.5 40t-265 109.5t-166.5 166t-58 208.5v1004h245v-944q0 -174 150.5 -266.5t445.5 -92.5q293 0 442.5 92.5t149.5 266.5v944h246v-1004zM1259 1595l-186 203l-186 -203h-209l313 340h164l313 -340 h-209z" />
<glyph unicode="&#xdc;" horiz-adv-x="2154" d="M1915 479q0 -115 -58.5 -210t-167 -165.5t-263 -109.5t-349.5 -39t-351.5 40t-265 109.5t-166.5 166t-58 208.5v1004h245v-944q0 -174 150.5 -266.5t445.5 -92.5q293 0 442.5 92.5t149.5 266.5v944h246v-1004zM999 1755q0 -53 -39 -90t-92 -37t-91 37t-38 90t38 92t91 39 t92 -39t39 -92zM1411 1755q0 -51 -39 -89t-92 -38t-91 37t-38 90t38 92t91 39t92 -39t39 -92z" />
<glyph unicode="&#xdd;" horiz-adv-x="1888" d="M1065 586v-586h-246v586l-811 897h305l631 -692l627 692h305zM940 1597h-125l141 340h238z" />
<glyph unicode="&#xde;" horiz-adv-x="1951" d="M1380 565q141 0 213 58.5t72 169.5q0 244 -301 243h-870v-471h886zM1423 1260q113 0 205 -33t155.5 -93.5t98.5 -146.5t35 -190q0 -221 -137.5 -338t-403.5 -117h-882v-342h-246v1483h246v-223h929z" />
<glyph unicode="&#xdf;" horiz-adv-x="3241" d="M1356 948q-127 66 -258 97.5t-277 31.5q-420 0 -420 -149q0 -51 41 -77t117 -38t184.5 -18.5t245.5 -20.5q147 -14 258 -39.5t183.5 -69.5t108.5 -110t36 -160q0 -203 -179 -313.5t-528 -110.5q-485 0 -776 222l133 174q129 -90 289 -136.5t350 -46.5q219 0 333 54.5 t114 144.5q0 102 -144 141q-104 29 -246.5 31t-322.5 18q-233 23 -344 100t-111 228q0 180 174.5 285.5t499.5 105.5q426 0 690 -184zM2931 948q-127 66 -258 97.5t-279 31.5q-418 0 -418 -149q0 -51 40 -77t116 -38t185.5 -18.5t246.5 -20.5q147 -14 258 -40.5t183.5 -71 t108.5 -110t36 -157.5q0 -201 -180.5 -312.5t-526.5 -111.5q-485 0 -776 222l133 174q129 -90 289 -136.5t350 -46.5q219 0 333 54.5t114 144.5q0 102 -144 141q-104 29 -246.5 31t-322.5 18q-233 23 -344 100t-111 228q0 180 174 285.5t498 105.5q215 0 387 -46t303 -138z " />
<glyph unicode="&#xe0;" horiz-adv-x="1730" d="M864 1051l-301 -557h600zM1432 0l-146 270h-846l-145 -270h-270l686 1260h305l686 -1260h-270zM866 1370l-254 340h238l141 -340h-125z" />
<glyph unicode="&#xe1;" horiz-adv-x="1730" d="M864 1051l-301 -557h600zM1432 0l-146 270h-846l-145 -270h-270l686 1260h305l686 -1260h-270zM862 1370h-125l141 340h238z" />
<glyph unicode="&#xe2;" horiz-adv-x="1730" d="M864 1051l-301 -557h600zM1432 0l-146 270h-846l-145 -270h-270l686 1260h305l686 -1260h-270zM1048 1368l-186 203l-186 -203h-209l313 340h164l313 -340h-209z" />
<glyph unicode="&#xe3;" horiz-adv-x="1730" d="M864 1051l-301 -557h600zM1432 0l-146 270h-846l-145 -270h-270l686 1260h305l686 -1260h-270zM1210 1575q-92 -172 -211 -172q-41 0 -79 12t-71 26l-63 25q-29 12 -51 13q-51 0 -109 -99l-120 95q66 78 117 118.5t104 40.5q37 0 71.5 -12t67.5 -27l64 -26q31 -12 59 -13 q35 0 58.5 24t52.5 71z" />
<glyph unicode="&#xe4;" horiz-adv-x="1730" d="M864 1051l-301 -557h600zM1432 0l-146 270h-846l-145 -270h-270l686 1260h305l686 -1260h-270zM788 1528q0 -53 -39 -90t-92 -37t-91 37t-38 90t38 92t91 39t92 -39t39 -92zM1200 1528q0 -51 -39 -89t-92 -38t-91 37t-38 90t38 92t91 39t92 -39t39 -92z" />
<glyph unicode="&#xe5;" horiz-adv-x="1730" d="M866 1051l-301 -557h600zM975 1563q0 35 -31 60.5t-78 25.5t-77.5 -26t-30.5 -60q0 -35 29.5 -59.5t78.5 -24.5q47 0 78 24.5t31 59.5zM1434 0l-146 270h-846l-145 -270h-270l686 1260h305l686 -1260h-270zM1098 1563q0 -39 -17.5 -74t-48.5 -60.5t-74 -40t-92 -14.5 t-91 14.5t-72.5 40t-48 60.5t-17.5 74t17.5 73.5t48 60t72.5 41t91 15.5t92 -15.5t74 -41t48.5 -60t17.5 -73.5z" />
<glyph unicode="&#xe6;" horiz-adv-x="2492" d="M1034 1042l-399 -548h399v548zM1034 0v270h-561l-201 -270h-245l915 1260h1401v-224h-1063v-270h739v-223h-739v-320h1110v-223h-1356z" />
<glyph unicode="&#xe7;" horiz-adv-x="1851" d="M1497 879q-109 109 -236.5 154.5t-293.5 45.5q-129 0 -233.5 -33.5t-180.5 -93t-117 -140.5t-41 -177q0 -98 41 -181t116 -142.5t180.5 -92.5t234.5 -33q170 0 297 46.5t237 160.5l211 -112q-141 -160 -312 -236t-399 -78l-38 -61q80 -8 121.5 -49t41.5 -107 q0 -76 -59 -124t-164 -48q-98 0 -196 39l38 74q63 -25 107 -25q47 0 75.5 23.5t28.5 54.5q0 23 -14 36t-37 13q-31 0 -55 -35l-64 29l52 92l47 90q-178 18 -317.5 74.5t-234.5 142.5t-144.5 200t-49.5 249q0 303 264 498q106 78 252 122.5t312 44.5q236 0 420 -82.5 t335 -261.5z" />
<glyph unicode="&#xe8;" horiz-adv-x="1673" d="M213 0v1260h1309v-224h-1063v-270h739v-223h-739v-320h1110v-223h-1356zM850 1370l-254 340h238l141 -340h-125z" />
<glyph unicode="&#xe9;" horiz-adv-x="1673" d="M213 0v1260h1309v-224h-1063v-270h739v-223h-739v-320h1110v-223h-1356zM846 1370h-125l141 340h238z" />
<glyph unicode="&#xea;" horiz-adv-x="1673" d="M213 0v1260h1309v-224h-1063v-270h739v-223h-739v-320h1110v-223h-1356zM1032 1368l-186 203l-186 -203h-209l313 340h164l313 -340h-209z" />
<glyph unicode="&#xeb;" horiz-adv-x="1673" d="M213 0v1260h1309v-224h-1063v-270h739v-223h-739v-320h1110v-223h-1356zM772 1528q0 -53 -39 -90t-92 -37t-91 37t-38 90t38 92t91 39t92 -39t39 -92zM1184 1528q0 -51 -39 -89t-92 -38t-91 37t-38 90t38 92t91 39t92 -39t39 -92z" />
<glyph unicode="&#xec;" horiz-adv-x="675" d="M213 0v1260h246v-1260h-246zM340 1370l-254 340h238l141 -340h-125z" />
<glyph unicode="&#xed;" horiz-adv-x="675" d="M213 0v1260h246v-1260h-246zM336 1370h-125l141 340h238z" />
<glyph unicode="&#xee;" horiz-adv-x="675" d="M213 0v1260h246v-1260h-246zM522 1368l-186 203l-186 -203h-209l313 340h164l313 -340h-209z" />
<glyph unicode="&#xef;" horiz-adv-x="675" d="M213 0v1260h246v-1260h-246zM262 1528q0 -53 -39 -90t-92 -37t-91 37t-38 90t38 92t91 39t92 -39t39 -92zM674 1528q0 -51 -39 -89t-92 -38t-91 37t-38 90t38 92t91 39t92 -39t39 -92z" />
<glyph unicode="&#xf0;" horiz-adv-x="1884" d="M1085 223q90 0 166 30t130.5 83t85 127t30.5 160q0 92 -31.5 168.5t-91 131t-142.5 84t-185 29.5h-588v-284h588v-224h-588v-305h626zM1028 1260q168 0 303 -46.5t230.5 -129.5t147.5 -196.5t52 -248.5q0 -143 -52 -258t-161 -217q-31 -29 -82 -58.5t-114.5 -53t-136 -38 t-146.5 -14.5h-856v528h-102v224h102v508h815z" />
<glyph unicode="&#xf1;" horiz-adv-x="1898" d="M1315 0l-856 1051v-1051h-246v1260h367l856 -1051v1051h245v-1260h-366zM1294 1575q-92 -172 -211 -172q-41 0 -79 12t-71 26l-63 25q-29 12 -51 13q-51 0 -109 -99l-120 95q66 78 117 118.5t104 40.5q37 0 71.5 -12t67.5 -27l64 -26q31 -12 59 -13q35 0 58.5 24t52.5 71 z" />
<glyph unicode="&#xf2;" horiz-adv-x="1935" d="M1538 633q0 96 -42 178t-116.5 141.5t-180 93t-232.5 33.5q-129 0 -234.5 -33.5t-181.5 -94t-118 -142.5t-42 -176q0 -98 41 -181t116 -142.5t181.5 -92.5t237.5 -33t236.5 33t180 92.5t114.5 142.5t40 181zM1794 633q0 -311 -264 -504q-106 -78 -250.5 -122t-312.5 -44 t-313.5 44t-252.5 122q-264 193 -264 504q0 307 267 500q109 78 254 124t309 46t308 -46.5t253 -123.5q266 -195 266 -500zM969 1370l-254 340h238l141 -340h-125z" />
<glyph unicode="&#xf3;" horiz-adv-x="1935" d="M1538 633q0 96 -42 178t-116.5 141.5t-180 93t-232.5 33.5q-129 0 -234.5 -33.5t-181.5 -94t-118 -142.5t-42 -176q0 -98 41 -181t116 -142.5t181.5 -92.5t237.5 -33t236.5 33t180 92.5t114.5 142.5t40 181zM1794 633q0 -311 -264 -504q-106 -78 -250.5 -122t-312.5 -44 t-313.5 44t-252.5 122q-264 193 -264 504q0 307 267 500q109 78 254 124t309 46t308 -46.5t253 -123.5q266 -195 266 -500zM965 1370h-125l141 340h238z" />
<glyph unicode="&#xf4;" horiz-adv-x="1935" d="M1538 633q0 96 -42 178t-116.5 141.5t-180 93t-232.5 33.5q-129 0 -234.5 -33.5t-181.5 -94t-118 -142.5t-42 -176q0 -98 41 -181t116 -142.5t181.5 -92.5t237.5 -33t236.5 33t180 92.5t114.5 142.5t40 181zM1794 633q0 -311 -264 -504q-106 -78 -250.5 -122t-312.5 -44 t-313.5 44t-252.5 122q-264 193 -264 504q0 307 267 500q109 78 254 124t309 46t308 -46.5t253 -123.5q266 -195 266 -500zM1151 1368l-186 203l-186 -203h-209l313 340h164l313 -340h-209z" />
<glyph unicode="&#xf5;" horiz-adv-x="1935" d="M1538 633q0 96 -42 178t-116.5 141.5t-180 93t-232.5 33.5q-129 0 -234.5 -33.5t-181.5 -94t-118 -142.5t-42 -176q0 -98 41 -181t116 -142.5t181.5 -92.5t237.5 -33t236.5 33t180 92.5t114.5 142.5t40 181zM1794 633q0 -311 -264 -504q-106 -78 -250.5 -122t-312.5 -44 t-313.5 44t-252.5 122q-264 193 -264 504q0 307 267 500q109 78 254 124t309 46t308 -46.5t253 -123.5q266 -195 266 -500zM1313 1575q-92 -172 -211 -172q-41 0 -79 12t-71 26l-63 25q-29 12 -51 13q-51 0 -109 -99l-120 95q66 78 117 118.5t104 40.5q37 0 71.5 -12 t67.5 -27l64 -26q31 -12 59 -13q35 0 58.5 24t52.5 71z" />
<glyph unicode="&#xf6;" horiz-adv-x="1935" d="M1538 633q0 96 -42 178t-116.5 141.5t-180 93t-232.5 33.5q-129 0 -234.5 -33.5t-181.5 -94t-118 -142.5t-42 -176q0 -98 41 -181t116 -142.5t181.5 -92.5t237.5 -33t236.5 33t180 92.5t114.5 142.5t40 181zM1794 633q0 -311 -264 -504q-106 -78 -250.5 -122t-312.5 -44 t-313.5 44t-252.5 122q-264 193 -264 504q0 307 267 500q109 78 254 124t309 46t308 -46.5t253 -123.5q266 -195 266 -500zM891 1528q0 -53 -39 -90t-92 -37t-91 37t-38 90t38 92t91 39t92 -39t39 -92zM1303 1528q0 -51 -39 -89t-92 -38t-91 37t-38 90t38 92t91 39t92 -39 t39 -92z" />
<glyph unicode="&#xf7;" horiz-adv-x="1705" d="M854 367q51 0 88 -36t37 -89q0 -51 -36 -88t-89 -37t-89 35.5t-36 89.5q0 53 37 89t88 36zM1452 541h-1198v139h1198v-139zM854 1106q51 0 88 -37t37 -90q0 -51 -36 -88t-89 -37t-89 36t-36 89t37 90t88 37z" />
<glyph unicode="&#xf8;" horiz-adv-x="1935" d="M1206 1042q-123 37 -237 37q-129 0 -234.5 -33.5t-181.5 -94t-118 -142.5t-42 -176q0 -109 44 -191t143 -153zM715 225q61 -23 123.5 -32t130.5 -9q131 0 236.5 33t180 92.5t114.5 142.5t40 181q0 111 -48 193.5t-153 154.5zM1489 1159q307 -195 307 -526 q0 -311 -264 -504q-106 -78 -250.5 -122t-312.5 -44q-203 0 -406 80l-112 -135h-189l170 203q-293 195 -293 522q0 307 267 500q109 78 254 124t309 46q190 0 391 -76l96 112h186z" />
<glyph unicode="&#xf9;" horiz-adv-x="1865" d="M1663 414q0 -98 -50 -180t-145.5 -142.5t-230.5 -94.5t-305 -34t-306 34t-231.5 94.5t-145.5 142t-50 180.5v846h245v-797q0 -135 123 -207t365 -72t363.5 72t121.5 207v797h246v-846zM934 1370l-254 340h238l141 -340h-125z" />
<glyph unicode="&#xfa;" horiz-adv-x="1865" d="M1663 414q0 -98 -50 -180t-145.5 -142.5t-230.5 -94.5t-305 -34t-306 34t-231.5 94.5t-145.5 142t-50 180.5v846h245v-797q0 -135 123 -207t365 -72t363.5 72t121.5 207v797h246v-846zM930 1370h-125l141 340h238z" />
<glyph unicode="&#xfb;" horiz-adv-x="1865" d="M1663 414q0 -98 -50 -180t-145.5 -142.5t-230.5 -94.5t-305 -34t-306 34t-231.5 94.5t-145.5 142t-50 180.5v846h245v-797q0 -135 123 -207t365 -72t363.5 72t121.5 207v797h246v-846zM1116 1368l-186 203l-186 -203h-209l313 340h164l313 -340h-209z" />
<glyph unicode="&#xfc;" horiz-adv-x="1865" d="M1663 414q0 -98 -50 -180t-145.5 -142.5t-230.5 -94.5t-305 -34t-306 34t-231.5 94.5t-145.5 142t-50 180.5v846h245v-797q0 -135 123 -207t365 -72t363.5 72t121.5 207v797h246v-846zM856 1528q0 -53 -39 -90t-92 -37t-91 37t-38 90t38 92t91 39t92 -39t39 -92z M1268 1528q0 -51 -39 -89t-92 -38t-91 37t-38 90t38 92t91 39t92 -39t39 -92z" />
<glyph unicode="&#xfd;" horiz-adv-x="1695" d="M967 496v-496h-246v496l-713 764h299l539 -574l538 574h300zM844 1370h-125l141 340h238z" />
<glyph unicode="&#xfe;" horiz-adv-x="1712" d="M1196 557q223 0 223 170q0 94 -57 137t-180 43h-721v-350h735zM1233 1130q100 0 181 -28.5t138.5 -80.5t88 -126t30.5 -164q0 -193 -123 -295t-356 -102h-731v-334h-246v1260h246v-130h772z" />
<glyph unicode="&#xff;" horiz-adv-x="1695" d="M967 496v-496h-246v496l-713 764h299l539 -574l538 574h300zM770 1528q0 -53 -39 -90t-92 -37t-91 37t-38 90t38 92t91 39t92 -39t39 -92zM1182 1528q0 -51 -39 -89t-92 -38t-91 37t-38 90t38 92t91 39t92 -39t39 -92z" />
<glyph unicode="&#x131;" horiz-adv-x="675" d="M215 0v1260h246v-1260h-246z" />
<glyph unicode="&#x152;" horiz-adv-x="3139" d="M1464 1153q0 94 -196 104h-172q-154 0 -277 -37.5t-211 -107.5t-135 -165t-47 -208q0 -117 46 -212t132 -162.5t211 -104.5t283 -37h182q92 0 138 33t46 92v805zM1102 0q-193 0 -355.5 47t-279.5 131q-297 211 -297 561q0 342 297 559q119 86 280.5 135.5t348.5 49.5 h1863v-223h-1249v-379h868v-224h-868v-434h1307v-223h-1915z" />
<glyph unicode="&#x153;" horiz-adv-x="2699" d="M1241 965q0 72 -129 71h-170q-125 0 -226.5 -30.5t-172 -84t-109.5 -129t-39 -163.5q0 -186 143.5 -296t403.5 -110h156q143 0 143 58v684zM948 0q-166 0 -305 40t-242 110q-262 180 -262 479q0 297 260 477q104 72 243.5 113t299.5 41h1608v-224h-1063v-270h739v-223 h-739v-320h1110v-223h-1649z" />
<glyph unicode="&#x178;" horiz-adv-x="1888" d="M1065 586v-586h-246v586l-811 897h305l631 -692l627 692h305zM866 1755q0 -53 -39 -90t-92 -37t-91 37t-38 90t38 92t91 39t92 -39t39 -92zM1278 1755q0 -51 -39 -89t-92 -38t-91 37t-38 90t38 92t91 39t92 -39t39 -92z" />
<glyph unicode="&#x2c6;" d="M698 1368l-186 203l-186 -203h-209l313 340h164l313 -340h-209z" />
<glyph unicode="&#x2c7;" d="M596 1368h-164l-313 340h209l186 -203l186 203h209z" />
<glyph unicode="&#x2dc;" d="M860 1575q-92 -172 -211 -172q-41 0 -79 12t-71 26l-63 25q-29 12 -51 13q-51 0 -109 -99l-120 95q66 78 117 118.5t104 40.5q37 0 71.5 -12t67.5 -27l64 -26q31 -12 59 -13q35 0 58.5 24t52.5 71z" />
<glyph unicode="&#x2000;" horiz-adv-x="987" />
<glyph unicode="&#x2001;" horiz-adv-x="1974" />
<glyph unicode="&#x2002;" horiz-adv-x="987" />
<glyph unicode="&#x2003;" horiz-adv-x="1974" />
<glyph unicode="&#x2004;" horiz-adv-x="657" />
<glyph unicode="&#x2005;" horiz-adv-x="493" />
<glyph unicode="&#x2006;" horiz-adv-x="327" />
<glyph unicode="&#x2007;" horiz-adv-x="327" />
<glyph unicode="&#x2008;" horiz-adv-x="245" />
<glyph unicode="&#x2009;" horiz-adv-x="393" />
<glyph unicode="&#x200a;" horiz-adv-x="108" />
<glyph unicode="&#x2010;" horiz-adv-x="1087" d="M123 543v223h842v-223h-842z" />
<glyph unicode="&#x2011;" horiz-adv-x="1087" d="M123 543v223h842v-223h-842z" />
<glyph unicode="&#x2012;" horiz-adv-x="1087" d="M123 543v223h842v-223h-842z" />
<glyph unicode="&#x2013;" horiz-adv-x="1730" d="M123 543v223h1468v-223h-1468z" />
<glyph unicode="&#x2014;" horiz-adv-x="1996" d="M123 543v223h1751v-223h-1751z" />
<glyph unicode="&#x2018;" horiz-adv-x="563" d="M123 979v281q0 223 256 223h47v-121q-154 -4 -154 -86v-74h168v-223h-317z" />
<glyph unicode="&#x2019;" horiz-adv-x="563" d="M440 1202q0 -223 -256 -223h-47v121q154 0 154 86v74h-168v223h317v-281z" />
<glyph unicode="&#x201a;" horiz-adv-x="747" d="M532 -57q0 -223 -256 -224h-47v121q154 2 154 86v74h-168v223h317v-280z" />
<glyph unicode="&#x201c;" horiz-adv-x="1050" d="M123 979v281q0 223 256 223h47v-121q-154 -4 -154 -86v-74h168v-223h-317zM610 979v281q0 223 256 223h47v-121q-154 -4 -153 -86v-74h168v-223h-318z" />
<glyph unicode="&#x201d;" horiz-adv-x="1050" d="M440 1202q0 -223 -256 -223h-47v121q154 0 154 86v74h-168v223h317v-281zM928 1202q0 -223 -256 -223h-47v121q154 0 153 86v74h-168v223h318v-281z" />
<glyph unicode="&#x201e;" horiz-adv-x="1214" d="M532 -57q0 -223 -256 -224h-47v121q154 2 154 86v74h-168v223h317v-280zM999 -57q0 -223 -256 -224h-47v121q154 2 154 86v74h-168v223h317v-280z" />
<glyph unicode="&#x2022;" horiz-adv-x="1089" d="M918 727q0 -145 -113 -252q-104 -100 -258 -100q-76 0 -142.5 26.5t-117.5 73.5q-113 106 -113 252q0 145 113 252q104 100 260 100q154 0 258 -100q113 -107 113 -252z" />
<glyph unicode="&#x2026;" horiz-adv-x="1607" d="M1169 856q-119 193 -442 193q-172 0 -263 -54.5t-91 -142.5q0 -84 91 -137t257 -53q150 0 265 51t183 143zM1229 649q-207 -197 -527 -196q-129 0 -234.5 30.5t-182 84t-118.5 125t-42 155.5q0 96 43 175t124 136.5t195.5 88t257.5 30.5q168 0 304.5 -48t232.5 -133 t148.5 -204t52.5 -260q0 -217 -127 -379q-104 -131 -262 -204t-351 -73q-190 0 -335.5 49.5t-243.5 143.5l172 168q96 -70 191.5 -103.5t199.5 -33.5q115 0 208 30.5t158.5 86t101.5 132t36 168.5v11q0 8 -2 20z" />
<glyph unicode="&#x202f;" horiz-adv-x="393" />
<glyph unicode="&#x2039;" horiz-adv-x="942" d="M463 657l325 -331h-301l-337 331l346 334h297z" />
<glyph unicode="&#x203a;" horiz-adv-x="942" d="M455 326h-301l325 331l-329 334h296l347 -334z" />
<glyph unicode="&#x205f;" horiz-adv-x="493" />
<glyph unicode="&#x2122;" horiz-adv-x="837" d="M209 1395v-273h-84v273h-105v67h293v-67h-104zM690 1122v256l-94 -256h-37l-96 256v-256h-82v340h119l80 -205l73 205h117v-340h-80z" />
<glyph unicode="&#xe000;" horiz-adv-x="1260" d="M0 1260h1260v-1260h-1260v1260z" />
<glyph unicode="&#xfb01;" horiz-adv-x="2250" d="M461 1036v-270h739v-223h-739v-543h-246v1260h1309v-224h-1063zM1790 0v1260h246v-1260h-246z" />
<glyph unicode="&#xfb02;" horiz-adv-x="3059" d="M461 1036v-270h739v-223h-739v-543h-246v1260h1309v-224h-1063zM1790 0v1260h246v-1037h973v-223h-1219z" />
<glyph unicode="&#xfb03;" horiz-adv-x="3825" d="M3365 0v1260h246v-1260h-246zM2036 1036v-270h739v-223h-739v-543h-246v1260h1309v-224h-1063zM461 1036v-270h739v-223h-739v-543h-246v1260h1309v-224h-1063z" />
<glyph unicode="&#xfb04;" horiz-adv-x="4634" d="M3365 0v1260h246v-1037h973v-223h-1219zM2036 1036v-270h739v-223h-739v-543h-246v1260h1309v-224h-1063zM461 1036v-270h739v-223h-739v-543h-246v1260h1309v-224h-1063z" />
</font>
</defs>
</svg>
